<?xml version="1.0" encoding="UTF-8"?><svg id="Layer_1" xmlns="http://www.w3.org/2000/svg" viewBox="0 0 474.43 321.69"><defs><style>.cls-1{fill:#013f35;}.cls-2{fill:#a7b592;}</style></defs><path class="cls-1" d="M5.93,0h39.28c9.89,0,17.53,3.3,22.41,9.1,3.95,4.61,6.33,10.81,6.33,17.93,0,17.27-9.89,27.68-30.45,27.68h-25.7v39.55H5.93V0ZM17.8,45.08h24.78c13.32,0,19.64-6.72,19.64-17.53s-6.99-17.27-18.98-17.27h-25.44v34.8Z"/><path class="cls-1" d="M80.41,0h44.03c16.61,0,27.81,10.41,27.81,25.84,0,11.47-5.01,19.64-16.35,23.33v.4c9.62,3.43,12.65,10.02,13.58,23.99,1.05,15.16,2.64,18.98,4.35,20.17v.53h-12.79c-1.98-1.71-2.37-5.27-3.43-21.09-.92-13.84-6.46-18.72-19.11-18.72h-26.23v39.81h-11.86V0ZM92.28,44.82h27.95c13.18,0,19.77-6.59,19.77-17.27,0-11.47-5.27-17.27-19.11-17.27h-28.61v34.54Z"/><path class="cls-2" d="M154.89,0h11.07l37.44,94.25h-11.07L154.89,0Z"/><path class="cls-1" d="M191.93,0h12.79l23.2,70.13c1.45,4.35,3.69,12.66,3.69,12.66h.26s2.24-8.44,3.69-12.66L258.5,0h12.39l-33.09,94.25h-13.05L191.93,0Z"/><path class="cls-1" d="M286.32,0h13.31l34.8,94.25h-12.92l-10.02-28.74h-37.57l-10.15,28.74h-12.13L286.32,0ZM277.35,55.89h30.85l-10.81-31.64c-1.85-5.27-4.22-13.31-4.22-13.31h-.26s-2.5,7.91-4.35,13.31l-11.2,31.64Z"/><path class="cls-1" d="M324.94,0h74.61v10.41h-31.37v83.84h-11.86V10.41h-31.37V0Z"/><path class="cls-1" d="M406.27,0h66.57v10.41h-54.71v29.79h49.7v10.02h-49.7v33.09h56.29v10.94h-68.15V0Z"/><path class="cls-1" d="M5.93,112.8h11.86v83.31h49.43v10.94H5.93v-94.25Z"/><path class="cls-1" d="M105.59,112.8h13.31l34.8,94.25h-12.92l-10.02-28.74h-37.57l-10.15,28.74h-12.13l34.67-94.25ZM96.62,168.69h30.85l-10.81-31.64c-1.84-5.27-4.22-13.31-4.22-13.31h-.26s-2.5,7.91-4.35,13.31l-11.21,31.64Z"/><path class="cls-1" d="M158.84,112.8h39.94c9.89,0,17.4,2.64,22.67,8.17,3.82,3.95,6.06,9.36,6.06,16.08,0,10.41-5.8,16.87-15.16,19.77v.4c10.68,2.5,18.98,10.15,18.98,22.81,0,7.25-2.5,13.45-6.85,18.06-5.27,5.67-13.45,8.96-23.6,8.96h-42.05v-94.25ZM197.34,153.14c11.47,0,18.32-5.67,18.32-15.42,0-9.1-6.2-14.63-16.74-14.63h-28.21v30.06h26.63ZM200.37,196.37c6.72,0,11.6-1.71,14.76-4.75,2.64-2.77,4.22-6.46,4.22-10.94,0-11.73-8.31-17.53-19.77-17.53h-28.87v33.22h29.66Z"/><path class="cls-1" d="M238.73,112.8h66.57v10.41h-54.71v29.79h49.7v10.02h-49.7v33.09h56.29v10.94h-68.15v-94.25Z"/><path class="cls-1" d="M315.71,112.8h11.86v83.31h49.43v10.94h-61.3v-94.25Z"/><path class="cls-1" d="M0,287.95h11.6c1.58,15.95,11.34,24.26,29.13,24.26,13.05,0,22.41-5.93,22.41-17.66,0-12.92-11.34-15.95-28.21-19.64-16.61-3.69-30.85-8.44-30.85-26.23,0-15.56,12.92-24.91,32.03-24.91,23.6,0,33.35,12,35.72,29.4h-11.21c-1.71-13.45-10.41-20.17-24.26-20.17-12.79,0-21.22,5.4-21.22,15.16,0,10.68,10.55,13.84,24.65,16.61,18.32,3.69,35.06,8.17,35.06,29.4,0,17.66-14.37,27.55-34.67,27.55-26.5,0-39.15-14.76-40.21-33.75Z"/><path class="cls-1" d="M83.44,225.6h39.28c9.89,0,17.53,3.3,22.41,9.09,3.95,4.61,6.33,10.81,6.33,17.93,0,17.27-9.89,27.68-30.45,27.68h-25.7v39.55h-11.86v-94.25ZM95.31,270.68h24.78c13.32,0,19.64-6.72,19.64-17.53s-6.99-17.27-18.98-17.27h-25.44v34.8Z"/><path class="cls-1" d="M158.19,225.6h11.86v94.25h-11.86v-94.25Z"/><path class="cls-1" d="M182.97,225.6h44.03c16.61,0,27.81,10.41,27.81,25.84,0,11.47-5.01,19.64-16.35,23.33v.4c9.62,3.43,12.65,10.02,13.58,23.99,1.05,15.16,2.64,18.98,4.35,20.17v.53h-12.79c-1.98-1.71-2.37-5.27-3.43-21.09-.92-13.84-6.46-18.72-19.11-18.72h-26.23v39.81h-11.86v-94.25ZM194.83,270.41h27.95c13.18,0,19.77-6.59,19.77-17.27,0-11.47-5.27-17.27-19.11-17.27h-28.61v34.54Z"/><path class="cls-1" d="M264.44,225.6h11.86v94.25h-11.86v-94.25Z"/><path class="cls-1" d="M283.29,225.6h74.61v10.41h-31.37v83.84h-11.86v-83.84h-31.37v-10.41Z"/><path class="cls-1" d="M358.69,287.95h11.6c1.58,15.95,11.34,24.26,29.13,24.26,13.05,0,22.41-5.93,22.41-17.66,0-12.92-11.34-15.95-28.21-19.64-16.61-3.69-30.85-8.44-30.85-26.23,0-15.56,12.92-24.91,32.03-24.91,23.6,0,33.35,12,35.72,29.4h-11.21c-1.71-13.45-10.41-20.17-24.26-20.17-12.79,0-21.22,5.4-21.22,15.16,0,10.68,10.55,13.84,24.65,16.61,18.32,3.69,35.06,8.17,35.06,29.4,0,17.66-14.37,27.55-34.67,27.55-26.5,0-39.15-14.76-40.21-33.75Z"/></svg>